Lohit-Devanagari.ufo
<glyph name="percent" format="1">
  <advance width="885"/>
  <unicode hex="0025"/>
  <outline>
    <contour>
      <point x="662" y="67"/>
      <point x="719" y="125"/>
      <point x="719" y="166" type="qcurve" smooth="yes"/>
      <point x="719" y="208"/>
      <point x="662" y="266"/>
      <point x="582" y="266"/>
      <point x="526" y="208"/>
      <point x="526" y="166" type="qcurve" smooth="yes"/>
      <point x="526" y="125"/>
      <point x="582" y="67"/>
    </contour>
    <contour>
      <point x="554" y="7"/>
      <point x="459" y="101"/>
      <point x="459" y="237"/>
      <point x="554" y="333"/>
      <point x="690" y="333"/>
      <point x="786" y="237"/>
      <point x="786" y="101"/>
      <point x="690" y="7"/>
    </contour>
    <contour>
      <point x="302" y="459"/>
      <point x="360" y="515"/>
      <point x="360" y="595"/>
      <point x="302" y="652"/>
      <point x="222" y="652"/>
      <point x="166" y="595"/>
      <point x="166" y="515"/>
      <point x="222" y="459"/>
    </contour>
    <contour>
      <point x="194" y="393"/>
      <point x="100" y="487"/>
      <point x="100" y="623"/>
      <point x="194" y="719"/>
      <point x="330" y="719"/>
      <point x="426" y="623"/>
      <point x="426" y="487"/>
      <point x="330" y="393"/>
    </contour>
    <contour>
      <point x="146" y="0" type="line"/>
      <point x="666" y="726" type="line"/>
      <point x="739" y="726" type="line"/>
      <point x="220" y="0" type="line"/>
    </contour>
  </outline>
</glyph>
<glyph name="two" format="1">
  <advance width="633"/>
  <unicode hex="0032"/>
  <outline>
    <contour>
      <point x="79" y="7" type="line"/>
      <point x="79" y="108"/>
      <point x="146" y="192" type="qcurve" smooth="yes"/>
      <point x="212" y="275"/>
      <point x="321" y="338" type="qcurve" smooth="yes"/>
      <point x="390" y="378"/>
      <point x="474" y="470"/>
      <point x="474" y="529" type="qcurve" smooth="yes"/>
      <point x="474" y="583"/>
      <point x="382" y="652"/>
      <point x="321" y="652" type="qcurve" smooth="yes"/>
      <point x="257" y="652"/>
      <point x="166" y="563"/>
      <point x="166" y="499" type="qcurve" smooth="yes"/>
      <point x="166" y="455" type="line"/>
      <point x="85" y="455" type="line"/>
      <point x="85" y="499" type="line" smooth="yes"/>
      <point x="85" y="594"/>
      <point x="224" y="727"/>
      <point x="321" y="727" type="qcurve" smooth="yes"/>
      <point x="415" y="727"/>
      <point x="555" y="615"/>
      <point x="555" y="529" type="qcurve" smooth="yes"/>
      <point x="555" y="453"/>
      <point x="504" y="390" type="qcurve" smooth="yes"/>
      <point x="454" y="327"/>
      <point x="373" y="280" type="qcurve" smooth="yes"/>
      <point x="277" y="225" type="line" smooth="yes"/>
      <point x="188" y="174"/>
      <point x="173" y="88" type="qcurve"/>
      <point x="555" y="88" type="line"/>
      <point x="555" y="7" type="line"/>
    </contour>
  </outline>
</glyph>
<glyph name="apostrophe" format="1">
  <advance width="314"/>
  <unicode hex="02BC"/>
  <outline>
    <contour>
      <point x="218" y="771" type="line" smooth="yes"/>
      <point x="218" y="739"/>
      <point x="212" y="687"/>
      <point x="200" y="642"/>
      <point x="183" y="603"/>
      <point x="171" y="583" type="qcurve"/>
      <point x="97" y="583" type="line"/>
      <point x="124" y="622"/>
      <point x="154" y="702"/>
      <point x="154" y="739" type="qcurve"/>
      <point x="101" y="739" type="line"/>
      <point x="101" y="858" type="line"/>
      <point x="218" y="858" type="line"/>
    </contour>
  </outline>
</glyph>
<glyph name="awsigndeva" format="1">
  <advance width="266"/>
  <unicode hex="094F"/>
  <outline>
    <contour>
      <point x="167" y="666" type="qcurve"/>
      <point x="280" y="666" type="line"/>
      <point x="280" y="606" type="line"/>
      <point x="166" y="606" type="line"/>
      <point x="166" y="0" type="line"/>
      <point x="100" y="0" type="line"/>
      <point x="100" y="606" type="line"/>
      <point x="-13" y="606" type="line"/>
      <point x="-13" y="666" type="line"/>
      <point x="62" y="666" type="line"/>
      <point x="49" y="690"/>
      <point x="26" y="708" type="qcurve" smooth="yes"/>
      <point x="-4" y="731"/>
      <point x="-54" y="737" type="qcurve" smooth="yes"/>
      <point x="-63" y="738"/>
      <point x="-73" y="736" type="qcurve" smooth="yes"/>
      <point x="-88" y="733"/>
      <point x="-111" y="733" type="qcurve" smooth="yes"/>
      <point x="-162" y="733"/>
      <point x="-204" y="756" type="qcurve" smooth="yes"/>
      <point x="-263" y="787"/>
      <point x="-288" y="863" type="qcurve"/>
      <point x="-222" y="872" type="line"/>
      <point x="-205" y="819"/>
      <point x="-167" y="800" type="qcurve" smooth="yes"/>
      <point x="-139" y="786"/>
      <point x="-106" y="786" type="qcurve" smooth="yes"/>
      <point x="-96" y="786"/>
      <point x="-66" y="790"/>
      <point x="-51" y="790" type="qcurve" smooth="yes"/>
      <point x="-48.2727" y="790.091"/>
      <point x="-45.5868" y="790.091" type="qcurve" smooth="yes"/>
      <point x="10.8182" y="790.091"/>
      <point x="49" y="750" type="qcurve" smooth="yes"/>
      <point x="82" y="716"/>
      <point x="98" y="666" type="qcurve"/>
      <point x="134" y="666" type="line"/>
      <point x="134" y="701"/>
      <point x="116" y="734" type="qcurve" smooth="yes"/>
      <point x="89" y="784"/>
      <point x="35" y="797" type="qcurve"/>
      <point x="-37" y="816"/>
      <point x="-78" y="867" type="qcurve" smooth="yes"/>
      <point x="-114" y="911"/>
      <point x="-114" y="976" type="qcurve" smooth="yes"/>
      <point x="-114" y="987"/>
      <point x="-113" y="998" type="qcurve"/>
      <point x="-49" y="981" type="line"/>
      <point x="-50" y="973"/>
      <point x="-50" y="965" type="qcurve" smooth="yes"/>
      <point x="-48" y="919"/>
      <point x="-26" y="893" type="qcurve" smooth="yes"/>
      <point x="0" y="862"/>
      <point x="49" y="849" type="qcurve" smooth="yes"/>
      <point x="129" y="828"/>
      <point x="154" y="763" type="qcurve" smooth="yes"/>
      <point x="167" y="729"/>
      <point x="168" y="686" type="qcurve" smooth="yes"/>
      <point x="168" y="675"/>
    </contour>
  </outline>
</glyph>
<glyph name="zadeva" format="1">
  <advance width="733"/>
  <unicode hex="095B"/>
  <outline>
    <component base="jadeva"/>
    <contour>
      <point x="603" y="664" type="move" name="DVAnchor3"/>
    </contour>
    <contour>
      <point x="181" y="-13" type="line"/>
      <point x="121" y="40" type="line"/>
      <point x="181" y="93" type="line"/>
      <point x="241" y="40" type="line"/>
    </contour>
  </outline>
</glyph>
<glyph name="fadeva" format="1">
  <advance width="765"/>
  <unicode hex="095E"/>
  <outline>
    <component base="phadeva" xOffset="1"/>
    <contour>
      <point x="379" y="664" type="move" name="DVAnchor3"/>
    </contour>
    <contour>
      <point x="380" y="21" type="move" name="DVAnchor0"/>
    </contour>
    <contour>
      <point x="172" y="-7" type="line"/>
      <point x="119" y="43" type="line"/>
      <point x="172" y="93" type="line"/>
      <point x="225" y="43" type="line"/>
    </contour>
  </outline>
</glyph>
<glyph name="yyadeva" format="1">
  <advance width="596"/>
  <unicode hex="095F"/>
  <outline>
    <component base="yadeva"/>
    <contour>
      <point x="465" y="665" type="move" name="DVAnchor3"/>
    </contour>
    <contour>
      <point x="164" y="-7" type="line"/>
      <point x="111" y="40" type="line"/>
      <point x="164" y="93" type="line"/>
      <point x="217" y="40" type="line"/>
    </contour>
  </outline>
</glyph>
<glyph name="zerodeva" format="1">
  <advance width="665"/>
  <unicode hex="0966"/>
  <outline>
    <contour>
      <point x="402" y="166"/>
      <point x="499" y="264"/>
      <point x="499" y="402"/>
      <point x="402" y="499"/>
      <point x="264" y="499"/>
      <point x="166" y="402"/>
      <point x="166" y="264"/>
      <point x="264" y="166"/>
    </contour>
    <contour>
      <point x="237" y="100"/>
      <point x="100" y="237"/>
      <point x="100" y="429"/>
      <point x="237" y="566"/>
      <point x="429" y="566"/>
      <point x="566" y="429"/>
      <point x="566" y="237"/>
      <point x="429" y="100"/>
    </contour>
  </outline>
</glyph>
<glyph name="uedeva" format="1">
  <advance width="768"/>
  <unicode hex="0976"/>
  <outline>
    <component/>
    <component xOffset="700"/>
    <contour>
      <point x="640" y="711" type="move" name="DVAnchor0"/>
    </contour>
  </outline>
</glyph>
<glyph name="uuedeva" format="1">
  <advance width="768"/>
  <unicode hex="0977"/>
  <outline>
    <component base="adeva"/>
    <component base="uuesigndeva" xOffset="695"/>
    <contour>
      <point x="640" y="711" type="move" name="DVAnchor0"/>
    </contour>
  </outline>
</glyph>
<glyph name="dddadeva" format="1">
  <advance width="717"/>
  <unicode hex="097E"/>
  <outline>
    <component base="ddadeva" xOffset="30"/>
    <contour>
      <point x="497" y="666" type="move" name="DVAnchor3"/>
    </contour>
    <contour>
      <point x="22" y="-60" type="line"/>
      <point x="22" y="0" type="line"/>
      <point x="668" y="0" type="line"/>
      <point x="668" y="-60" type="line"/>
    </contour>
  </outline>
</glyph>
<glyph name="onecombiningdigitdeva" format="1">
  <advance width="0"/>
  <unicode hex="A8E1"/>
  <outline>
    <contour>
      <point x="-137" y="681" type="move" name="_DVAnchor3"/>
    </contour>
    <contour>
      <point x="-155" y="912" type="qcurve" smooth="yes"/>
      <point x="-130" y="912"/>
      <point x="-112" y="928" type="qcurve" smooth="yes"/>
      <point x="-95" y="942"/>
      <point x="-95" y="963" type="qcurve" smooth="yes"/>
      <point x="-95" y="984"/>
      <point x="-130" y="1016"/>
      <point x="-155" y="1016" type="qcurve" smooth="yes"/>
      <point x="-178" y="1016"/>
      <point x="-211" y="985"/>
      <point x="-211" y="963" type="qcurve" smooth="yes"/>
      <point x="-211" y="942"/>
      <point x="-178" y="912"/>
    </contour>
    <contour>
      <point x="-76" y="1022" type="qcurve"/>
      <point x="-46" y="1000"/>
      <point x="-46" y="954" type="qcurve" smooth="yes"/>
      <point x="-46" y="729" type="line"/>
      <point x="-91" y="729" type="line"/>
      <point x="-91" y="896" type="line"/>
      <point x="-103" y="888"/>
      <point x="-117" y="884" type="qcurve" smooth="yes"/>
      <point x="-135" y="878"/>
      <point x="-155" y="878" type="qcurve" smooth="yes"/>
      <point x="-197" y="878"/>
      <point x="-226" y="903" type="qcurve" smooth="yes"/>
      <point x="-256" y="928"/>
      <point x="-256" y="963" type="qcurve" smooth="yes"/>
      <point x="-256" y="998"/>
      <point x="-226" y="1023" type="qcurve" smooth="yes"/>
      <point x="-197" y="1047"/>
      <point x="-155" y="1047" type="qcurve" smooth="yes"/>
      <point x="-106" y="1047"/>
    </contour>
  </outline>
</glyph>
<glyph name="twocombiningdigitdeva" format="1">
  <advance width="0"/>
  <unicode hex="A8E2"/>
  <outline>
    <contour>
      <point x="-137" y="675" type="move" name="_DVAnchor3"/>
    </contour>
    <contour>
      <point x="-84" y="697" type="line"/>
      <point x="-180" y="801" type="line"/>
      <point x="-188" y="799" type="line" smooth="yes"/>
      <point x="-195" y="798"/>
      <point x="-204" y="798" type="qcurve" smooth="yes"/>
      <point x="-228" y="798"/>
      <point x="-245" y="809" type="qcurve" smooth="yes"/>
      <point x="-263" y="820"/>
      <point x="-263" y="837" type="qcurve" smooth="yes"/>
      <point x="-263" y="849"/>
      <point x="-251" y="857" type="qcurve" smooth="yes"/>
      <point x="-239" y="865"/>
      <point x="-223" y="865" type="qcurve" smooth="yes"/>
      <point x="-208" y="865"/>
      <point x="-191" y="858" type="qcurve" smooth="yes"/>
      <point x="-177" y="852"/>
      <point x="-163" y="841" type="qcurve"/>
      <point x="-127" y="853"/>
      <point x="-105" y="877" type="qcurve" smooth="yes"/>
      <point x="-83" y="902"/>
      <point x="-83" y="932" type="qcurve" smooth="yes"/>
      <point x="-83" y="960"/>
      <point x="-106" y="981" type="qcurve"/>
      <point x="-130" y="1001"/>
      <point x="-164" y="1001" type="qcurve" smooth="yes"/>
      <point x="-188" y="1001"/>
      <point x="-238" y="985"/>
      <point x="-261" y="970" type="qcurve"/>
      <point x="-263" y="968" type="line"/>
      <point x="-291" y="997" type="line"/>
      <point x="-287" y="999" type="line"/>
      <point x="-258" y="1018"/>
      <point x="-195" y="1038"/>
      <point x="-164" y="1038" type="qcurve" smooth="yes"/>
      <point x="-112" y="1038"/>
      <point x="-76" y="1007" type="qcurve"/>
      <point x="-38" y="976"/>
      <point x="-38" y="932" type="qcurve" smooth="yes"/>
      <point x="-38" y="891"/>
      <point x="-67" y="859" type="qcurve" smooth="yes"/>
      <point x="-93" y="829"/>
      <point x="-135" y="815" type="qcurve"/>
      <point x="-47" y="719" type="line"/>
    </contour>
  </outline>
</glyph>
<glyph name="threecombiningdigitdeva" format="1">
  <advance width="0"/>
  <unicode hex="A8E3"/>
  <outline>
    <contour>
      <point x="-147" y="671" type="move" name="_DVAnchor3"/>
    </contour>
    <contour>
      <point x="-111" y="698" type="line"/>
      <point x="-126" y="705"/>
      <point x="-144" y="722" type="qcurve"/>
      <point x="-160" y="739"/>
      <point x="-177" y="764" type="qcurve"/>
      <point x="-205" y="765"/>
      <point x="-224" y="776" type="qcurve" smooth="yes"/>
      <point x="-245" y="789"/>
      <point x="-245" y="808" type="qcurve" smooth="yes"/>
      <point x="-245" y="818"/>
      <point x="-234" y="826" type="qcurve"/>
      <point x="-224" y="832"/>
      <point x="-193" y="832"/>
      <point x="-176" y="823" type="qcurve" smooth="yes"/>
      <point x="-160" y="814"/>
      <point x="-148" y="798" type="qcurve"/>
      <point x="-116" y="803"/>
      <point x="-76" y="832"/>
      <point x="-76" y="850" type="qcurve" smooth="yes"/>
      <point x="-76" y="870"/>
      <point x="-100" y="884" type="qcurve" smooth="yes"/>
      <point x="-125" y="899"/>
      <point x="-161" y="899" type="qcurve" smooth="yes"/>
      <point x="-203" y="899" type="line"/>
      <point x="-227" y="930" type="line"/>
      <point x="-153" y="930" type="line" smooth="yes"/>
      <point x="-127" y="930"/>
      <point x="-108" y="942" type="qcurve" smooth="yes"/>
      <point x="-91" y="953"/>
      <point x="-91" y="969" type="qcurve" smooth="yes"/>
      <point x="-91" y="983"/>
      <point x="-109" y="994" type="qcurve" smooth="yes"/>
      <point x="-129" y="1005"/>
      <point x="-157" y="1005" type="qcurve" smooth="yes"/>
      <point x="-172" y="1005"/>
      <point x="-211" y="996"/>
      <point x="-233" y="987" type="qcurve"/>
      <point x="-235" y="986" type="line"/>
      <point x="-258" y="1009" type="line"/>
      <point x="-254" y="1012" type="line"/>
      <point x="-233" y="1025"/>
      <point x="-181" y="1039"/>
      <point x="-153" y="1039" type="qcurve" smooth="yes"/>
      <point x="-109" y="1039"/>
      <point x="-78" y="1019" type="qcurve" smooth="yes"/>
      <point x="-46" y="998"/>
      <point x="-46" y="969" type="qcurve" smooth="yes"/>
      <point x="-46" y="951"/>
      <point x="-60" y="935" type="qcurve" smooth="yes"/>
      <point x="-71" y="923"/>
      <point x="-88" y="914" type="qcurve"/>
      <point x="-65" y="904"/>
      <point x="-50" y="889" type="qcurve" smooth="yes"/>
      <point x="-32" y="871"/>
      <point x="-32" y="850" type="qcurve" smooth="yes"/>
      <point x="-32" y="820"/>
      <point x="-62" y="798" type="qcurve" smooth="yes"/>
      <point x="-90" y="777"/>
      <point x="-132" y="770" type="qcurve"/>
      <point x="-116" y="752"/>
      <point x="-103" y="740" type="qcurve" smooth="yes"/>
      <point x="-89" y="727"/>
      <point x="-78" y="724" type="qcurve"/>
      <point x="-71" y="721" type="line"/>
      <point x="-109" y="698" type="line"/>
    </contour>
  </outline>
</glyph>
<glyph name="fourcombiningdigitdeva" format="1">
  <advance width="0"/>
  <unicode hex="A8E4"/>
  <outline>
    <contour>
      <point x="-130" y="681" type="move" name="_DVAnchor3"/>
    </contour>
    <contour>
      <point x="-127" y="758" type="qcurve" smooth="yes"/>
      <point x="-103" y="758"/>
      <point x="-85" y="771" type="qcurve" smooth="yes"/>
      <point x="-68" y="784"/>
      <point x="-68" y="801" type="qcurve" smooth="yes"/>
      <point x="-68" y="817"/>
      <point x="-100" y="849"/>
      <point x="-127" y="859" type="qcurve"/>
      <point x="-152" y="852"/>
      <point x="-183" y="820"/>
      <point x="-183" y="801" type="qcurve" smooth="yes"/>
      <point x="-183" y="784"/>
      <point x="-167" y="771" type="qcurve" smooth="yes"/>
      <point x="-150" y="758"/>
    </contour>
    <contour>
      <point x="-127" y="724" type="qcurve" smooth="yes"/>
      <point x="-168" y="724"/>
      <point x="-197" y="746" type="qcurve" smooth="yes"/>
      <point x="-227" y="769"/>
      <point x="-227" y="801" type="qcurve" smooth="yes"/>
      <point x="-227" y="825"/>
      <point x="-209" y="848" type="qcurve" smooth="yes"/>
      <point x="-193" y="867"/>
      <point x="-166" y="880" type="qcurve"/>
      <point x="-207" y="898"/>
      <point x="-232" y="921" type="qcurve" smooth="yes"/>
      <point x="-260" y="948"/>
      <point x="-260" y="975" type="qcurve" smooth="yes"/>
      <point x="-260" y="991"/>
      <point x="-251" y="1006" type="qcurve" smooth="yes"/>
      <point x="-242" y="1020"/>
      <point x="-226" y="1031" type="qcurve"/>
      <point x="-224" y="1033" type="line"/>
      <point x="-187" y="1014" type="line"/>
      <point x="-191" y="1011" type="line" smooth="yes"/>
      <point x="-204" y="1001"/>
      <point x="-210" y="991" type="qcurve" smooth="yes"/>
      <point x="-216" y="982"/>
      <point x="-216" y="975" type="qcurve" smooth="yes"/>
      <point x="-216" y="955"/>
      <point x="-168" y="914"/>
      <point x="-127" y="902" type="qcurve"/>
      <point x="-88" y="921"/>
      <point x="-65" y="941" type="qcurve" smooth="yes"/>
      <point x="-43" y="960"/>
      <point x="-43" y="975" type="qcurve" smooth="yes"/>
      <point x="-43" y="983"/>
      <point x="-49" y="992" type="qcurve" smooth="yes"/>
      <point x="-55" y="1002"/>
      <point x="-67" y="1014" type="qcurve"/>
      <point x="-71" y="1017" type="line"/>
      <point x="-31" y="1036" type="line"/>
      <point x="-29" y="1034" type="line"/>
      <point x="-15" y="1022"/>
      <point x="2" y="992"/>
      <point x="2" y="975" type="qcurve" smooth="yes"/>
      <point x="2" y="950"/>
      <point x="-24" y="923" type="qcurve" smooth="yes"/>
      <point x="-47" y="900"/>
      <point x="-86" y="881" type="qcurve"/>
      <point x="-59" y="867"/>
      <point x="-43" y="848" type="qcurve" smooth="yes"/>
      <point x="-24" y="825"/>
      <point x="-24" y="801" type="qcurve" smooth="yes"/>
      <point x="-24" y="769"/>
      <point x="-55" y="746" type="qcurve" smooth="yes"/>
      <point x="-85" y="724"/>
    </contour>
  </outline>
</glyph>
<glyph name="fivecombiningdigitdeva" format="1">
  <advance width="0"/>
  <unicode hex="A8E5"/>
  <outline>
    <contour>
      <point x="-24" y="815" type="line"/>
      <point x="-16" y="800"/>
      <point x="-13" y="789" type="qcurve" smooth="yes"/>
      <point x="-9" y="778"/>
      <point x="-9" y="771" type="qcurve" smooth="yes"/>
      <point x="-9" y="756"/>
      <point x="-25" y="740" type="qcurve" smooth="yes"/>
      <point x="-40" y="726"/>
      <point x="-66" y="715" type="qcurve"/>
      <point x="-69" y="714" type="line"/>
      <point x="-92" y="741" type="line"/>
      <point x="-88" y="743" type="line" smooth="yes"/>
      <point x="-73" y="750"/>
      <point x="-64" y="758" type="qcurve" smooth="yes"/>
      <point x="-56" y="766"/>
      <point x="-56" y="777"/>
      <point x="-60" y="787" type="qcurve" smooth="yes"/>
      <point x="-64" y="798"/>
      <point x="-71" y="812" type="qcurve"/>
      <point x="-95" y="869" type="line"/>
      <point x="-107" y="864"/>
      <point x="-120" y="861" type="qcurve" smooth="yes"/>
      <point x="-136" y="857"/>
      <point x="-152" y="857" type="qcurve" smooth="yes"/>
      <point x="-202" y="857"/>
      <point x="-237" y="884" type="qcurve"/>
      <point x="-273" y="910"/>
      <point x="-273" y="948" type="qcurve" smooth="yes"/>
      <point x="-273" y="974"/>
      <point x="-258" y="1019"/>
      <point x="-243" y="1038" type="qcurve"/>
      <point x="-242" y="1040" type="line"/>
      <point x="-201" y="1027" type="line"/>
      <point x="-204" y="1023" type="line" smooth="yes"/>
      <point x="-217" y="1007"/>
      <point x="-229" y="969"/>
      <point x="-229" y="948" type="qcurve" smooth="yes"/>
      <point x="-229" y="924"/>
      <point x="-207" y="906" type="qcurve" smooth="yes"/>
      <point x="-184" y="888"/>
      <point x="-152" y="888" type="qcurve" smooth="yes"/>
      <point x="-139" y="888"/>
      <point x="-127" y="891" type="qcurve" smooth="yes"/>
      <point x="-118" y="893"/>
      <point x="-110" y="897" type="qcurve"/>
      <point x="-112" y="903"/>
      <point x="-113" y="912" type="qcurve" smooth="yes"/>
      <point x="-115" y="923"/>
      <point x="-115" y="940" type="qcurve" smooth="yes"/>
      <point x="-115" y="959"/>
      <point x="-87" y="986"/>
      <point x="-68" y="986" type="qcurve" smooth="yes"/>
      <point x="-51" y="986"/>
      <point x="-39" y="973" type="qcurve" smooth="yes"/>
      <point x="-27" y="959"/>
      <point x="-27" y="940" type="qcurve" smooth="yes"/>
      <point x="-27" y="928"/>
      <point x="-35" y="915" type="qcurve"/>
      <point x="-43" y="904"/>
      <point x="-56" y="892" type="qcurve"/>
    </contour>
  </outline>
</glyph>
<glyph name="sixcombiningdigitdeva" format="1">
  <advance width="0"/>
  <unicode hex="A8E6"/>
  <outline>
    <contour>
      <point x="-137" y="679" type="move" name="_DVAnchor3"/>
    </contour>
    <contour>
      <point x="-55" y="699" type="line"/>
      <point x="-66" y="709"/>
      <point x="-79" y="728" type="qcurve" smooth="yes"/>
      <point x="-92" y="747"/>
      <point x="-106" y="774" type="qcurve"/>
      <point x="-163" y="775"/>
      <point x="-203" y="797" type="qcurve" smooth="yes"/>
      <point x="-245" y="820"/>
      <point x="-245" y="853" type="qcurve" smooth="yes"/>
      <point x="-245" y="871"/>
      <point x="-231" y="886" type="qcurve" smooth="yes"/>
      <point x="-221" y="898"/>
      <point x="-205" y="906" type="qcurve"/>
      <point x="-229" y="912"/>
      <point x="-245" y="926" type="qcurve" smooth="yes"/>
      <point x="-267" y="945"/>
      <point x="-267" y="970" type="qcurve" smooth="yes"/>
      <point x="-267" y="997"/>
      <point x="-237" y="1016" type="qcurve" smooth="yes"/>
      <point x="-208" y="1034"/>
      <point x="-167" y="1034" type="qcurve" smooth="yes"/>
      <point x="-141" y="1034"/>
      <point x="-97" y="1027"/>
      <point x="-81" y="1020" type="qcurve"/>
      <point x="-77" y="1019" type="line"/>
      <point x="-91" y="989" type="line"/>
      <point x="-94" y="990" type="line"/>
      <point x="-114" y="995"/>
      <point x="-151" y="1000"/>
      <point x="-167" y="1000" type="qcurve" smooth="yes"/>
      <point x="-190" y="1000"/>
      <point x="-207" y="991" type="qcurve" smooth="yes"/>
      <point x="-223" y="982"/>
      <point x="-223" y="970" type="qcurve" smooth="yes"/>
      <point x="-223" y="953"/>
      <point x="-205" y="940" type="qcurve" smooth="yes"/>
      <point x="-186" y="927"/>
      <point x="-160" y="927" type="qcurve" smooth="yes"/>
      <point x="-98" y="927" type="line"/>
      <point x="-79" y="899" type="line"/>
      <point x="-126" y="899" type="line" smooth="yes"/>
      <point x="-157" y="899"/>
      <point x="-179" y="885" type="qcurve" smooth="yes"/>
      <point x="-200" y="871"/>
      <point x="-200" y="853" type="qcurve" smooth="yes"/>
      <point x="-200" y="834"/>
      <point x="-174" y="820" type="qcurve" smooth="yes"/>
      <point x="-148" y="806"/>
      <point x="-112" y="805" type="qcurve"/>
      <point x="-110" y="821"/>
      <point x="-96" y="833" type="qcurve" smooth="yes"/>
      <point x="-81" y="846"/>
      <point x="-60" y="846" type="qcurve" smooth="yes"/>
      <point x="-48" y="846"/>
      <point x="-39" y="839" type="qcurve" smooth="yes"/>
      <point x="-30" y="831"/>
      <point x="-30" y="808"/>
      <point x="-40" y="796" type="qcurve" smooth="yes"/>
      <point x="-48" y="786"/>
      <point x="-62" y="778" type="qcurve"/>
      <point x="-59" y="770"/>
      <point x="-50" y="758" type="qcurve" smooth="yes"/>
      <point x="-40" y="743"/>
      <point x="-24" y="723" type="qcurve" smooth="yes"/>
      <point x="-21" y="719" type="line"/>
      <point x="-53" y="698" type="line"/>
    </contour>
  </outline>
</glyph>
<glyph name="sevencombiningdigitdeva" format="1">
  <advance width="0"/>
  <unicode hex="A8E7"/>
  <outline>
    <contour>
      <point x="-137" y="681" type="move" name="_DVAnchor3"/>
    </contour>
    <contour>
      <point x="-38" y="836" type="qcurve"/>
      <point x="-35" y="851"/>
      <point x="-33" y="863" type="qcurve" smooth="yes"/>
      <point x="-31" y="877"/>
      <point x="-31" y="888" type="qcurve" smooth="yes"/>
      <point x="-31" y="921"/>
      <point x="-45" y="943" type="qcurve" smooth="yes"/>
      <point x="-58" y="965"/>
      <point x="-76" y="965" type="qcurve" smooth="yes"/>
      <point x="-92" y="965"/>
      <point x="-104" y="949" type="qcurve" smooth="yes"/>
      <point x="-117" y="932"/>
      <point x="-117" y="909" type="qcurve" smooth="yes"/>
      <point x="-117" y="879"/>
      <point x="-93" y="857" type="qcurve" smooth="yes"/>
      <point x="-71" y="837"/>
    </contour>
    <contour>
      <point x="-124" y="722" type="qcurve" smooth="yes"/>
      <point x="-184" y="722"/>
      <point x="-268" y="816"/>
      <point x="-268" y="883" type="qcurve" smooth="yes"/>
      <point x="-268" y="897"/>
      <point x="-263" y="951"/>
      <point x="-257" y="1008" type="qcurve"/>
      <point x="-257" y="1010" type="line"/>
      <point x="-207" y="1031" type="line"/>
      <point x="-209" y="1024" type="line"/>
      <point x="-217" y="991"/>
      <point x="-224" y="920"/>
      <point x="-224" y="883" type="qcurve" smooth="yes"/>
      <point x="-224" y="830"/>
      <point x="-195" y="793" type="qcurve" smooth="yes"/>
      <point x="-165" y="756"/>
      <point x="-124" y="756" type="qcurve" smooth="yes"/>
      <point x="-100" y="756"/>
      <point x="-79" y="771" type="qcurve" smooth="yes"/>
      <point x="-59" y="785"/>
      <point x="-48" y="808" type="qcurve"/>
      <point x="-92" y="810"/>
      <point x="-124" y="837" type="qcurve"/>
      <point x="-157" y="867"/>
      <point x="-157" y="909" type="qcurve" smooth="yes"/>
      <point x="-157" y="946"/>
      <point x="-109" y="999"/>
      <point x="-76" y="999" type="qcurve" smooth="yes"/>
      <point x="-38" y="999"/>
      <point x="-12" y="966" type="qcurve" smooth="yes"/>
      <point x="13" y="934"/>
      <point x="13" y="888" type="qcurve" smooth="yes"/>
      <point x="13" y="813"/>
      <point x="-24" y="768" type="qcurve" smooth="yes"/>
      <point x="-61" y="722"/>
    </contour>
  </outline>
</glyph>
<glyph name="eightcombiningdigitdeva" format="1">
  <advance width="0"/>
  <unicode hex="A8E8"/>
  <outline>
    <contour>
      <point x="-137" y="681" type="move" name="_DVAnchor3"/>
    </contour>
    <contour>
      <point x="-125" y="723" type="qcurve" smooth="yes"/>
      <point x="-183" y="723"/>
      <point x="-224" y="752" type="qcurve" smooth="yes"/>
      <point x="-266" y="781"/>
      <point x="-266" y="822" type="qcurve" smooth="yes"/>
      <point x="-266" y="839"/>
      <point x="-248" y="873"/>
      <point x="-231" y="887" type="qcurve" smooth="yes"/>
      <point x="-55" y="1033" type="line"/>
      <point x="-23" y="1008" type="line"/>
      <point x="-197" y="863" type="line" smooth="yes"/>
      <point x="-207" y="855"/>
      <point x="-218" y="833"/>
      <point x="-218" y="822" type="qcurve" smooth="yes"/>
      <point x="-218" y="795"/>
      <point x="-191" y="776" type="qcurve" smooth="yes"/>
      <point x="-164" y="757"/>
      <point x="-125" y="757" type="qcurve" smooth="yes"/>
      <point x="-104" y="757"/>
      <point x="-79" y="769" type="qcurve"/>
      <point x="-55" y="782"/>
      <point x="-32" y="803" type="qcurve"/>
      <point x="-29" y="806" type="line"/>
      <point x="3" y="781" type="line"/>
      <point x="0" y="778" type="line"/>
      <point x="-28" y="752"/>
      <point x="-93" y="723"/>
    </contour>
  </outline>
</glyph>
<glyph name="ninecombiningdigitdeva" format="1">
  <advance width="0"/>
  <unicode hex="A8E9"/>
  <outline>
    <contour>
      <point x="-137" y="674" type="move" name="_DVAnchor3"/>
    </contour>
    <contour>
      <point x="-161" y="908" type="qcurve" smooth="yes"/>
      <point x="-138" y="908"/>
      <point x="-122" y="922" type="qcurve" smooth="yes"/>
      <point x="-106" y="936"/>
      <point x="-106" y="955" type="qcurve" smooth="yes"/>
      <point x="-106" y="973"/>
      <point x="-122" y="986" type="qcurve" smooth="yes"/>
      <point x="-138" y="999"/>
      <point x="-161" y="999" type="qcurve" smooth="yes"/>
      <point x="-187" y="999"/>
      <point x="-206" y="986" type="qcurve" smooth="yes"/>
      <point x="-224" y="973"/>
      <point x="-224" y="955" type="qcurve" smooth="yes"/>
      <point x="-224" y="936"/>
      <point x="-206" y="923" type="qcurve" smooth="yes"/>
      <point x="-187" y="908"/>
    </contour>
    <contour>
      <point x="-90" y="775" type="qcurve"/>
      <point x="-204" y="865" type="line"/>
      <point x="-235" y="887"/>
      <point x="-251" y="912" type="qcurve" smooth="yes"/>
      <point x="-268" y="937"/>
      <point x="-268" y="961" type="qcurve" smooth="yes"/>
      <point x="-268" y="992"/>
      <point x="-236" y="1014" type="qcurve" smooth="yes"/>
      <point x="-205" y="1036"/>
      <point x="-161" y="1036" type="qcurve" smooth="yes"/>
      <point x="-118" y="1036"/>
      <point x="-88" y="1013" type="qcurve" smooth="yes"/>
      <point x="-58" y="989"/>
      <point x="-58" y="955" type="qcurve" smooth="yes"/>
      <point x="-58" y="923"/>
      <point x="-84" y="900" type="qcurve" smooth="yes"/>
      <point x="-109" y="877"/>
      <point x="-146" y="877" type="qcurve" smooth="yes"/>
      <point x="-149" y="877"/>
      <point x="-155" y="878" type="qcurve" smooth="yes"/>
      <point x="-160" y="878" type="line"/>
      <point x="-44" y="786" type="line" smooth="yes"/>
      <point x="-33" y="776"/>
      <point x="-27" y="766" type="qcurve" smooth="yes"/>
      <point x="-21" y="757"/>
      <point x="-21" y="748" type="qcurve" smooth="yes"/>
      <point x="-21" y="730"/>
      <point x="-44" y="717" type="qcurve" smooth="yes"/>
      <point x="-67" y="704"/>
      <point x="-98" y="702" type="qcurve"/>
      <point x="-101" y="702" type="line"/>
      <point x="-115" y="733" type="line"/>
      <point x="-110" y="733" type="line" smooth="yes"/>
      <point x="-90" y="733"/>
      <point x="-77" y="739" type="qcurve"/>
      <point x="-65" y="743"/>
      <point x="-65" y="748" type="qcurve" smooth="yes"/>
      <point x="-65" y="751"/>
      <point x="-71" y="756" type="qcurve"/>
      <point x="-77" y="763"/>
    </contour>
  </outline>
</glyph>
<glyph name="acombiningletterdeva" format="1">
  <advance width="0"/>
  <unicode hex="A8EA"/>
  <outline>
    <contour>
      <point x="-137" y="681" type="move" name="_DVAnchor3"/>
    </contour>
    <contour>
      <point x="-215" y="750" type="qcurve" smooth="yes"/>
      <point x="-261" y="750"/>
      <point x="-303" y="780" type="qcurve" smooth="yes"/>
      <point x="-346" y="810"/>
      <point x="-377" y="865" type="qcurve"/>
      <point x="-379" y="868" type="line"/>
      <point x="-345" y="884" type="line"/>
      <point x="-343" y="881" type="line"/>
      <point x="-317" y="836"/>
      <point x="-283" y="811" type="qcurve" smooth="yes"/>
      <point x="-250" y="787"/>
      <point x="-215" y="787" type="qcurve" smooth="yes"/>
      <point x="-193" y="787"/>
      <point x="-178" y="800" type="qcurve" smooth="yes"/>
      <point x="-163" y="812"/>
      <point x="-163" y="830" type="qcurve" smooth="yes"/>
      <point x="-163" y="852"/>
      <point x="-198" y="883"/>
      <point x="-222" y="883" type="qcurve" smooth="yes"/>
      <point x="-230" y="883"/>
      <point x="-248" y="881"/>
      <point x="-258" y="878" type="qcurve" smooth="yes"/>
      <point x="-261" y="877" type="line"/>
      <point x="-280" y="911" type="line"/>
      <point x="-275" y="911" type="line"/>
      <point x="-242" y="914"/>
      <point x="-217" y="929" type="qcurve"/>
      <point x="-194" y="945"/>
      <point x="-194" y="961" type="qcurve" smooth="yes"/>
      <point x="-194" y="976"/>
      <point x="-217" y="999"/>
      <point x="-233" y="999" type="qcurve" smooth="yes"/>
      <point x="-254" y="999"/>
      <point x="-299" y="978"/>
      <point x="-320" y="958" type="qcurve" smooth="yes"/>
      <point x="-322" y="956" type="line"/>
      <point x="-354" y="981" type="line"/>
      <point x="-351" y="984" type="line"/>
      <point x="-331" y="1007"/>
      <point x="-269" y="1033"/>
      <point x="-233" y="1033" type="qcurve" smooth="yes"/>
      <point x="-198" y="1033"/>
      <point x="-173" y="1012" type="qcurve" smooth="yes"/>
      <point x="-148" y="991"/>
      <point x="-148" y="961" type="qcurve" smooth="yes"/>
      <point x="-148" y="945"/>
      <point x="-158" y="930" type="qcurve" smooth="yes"/>
      <point x="-165" y="918"/>
      <point x="-178" y="909" type="qcurve"/>
      <point x="-153" y="898"/>
      <point x="-134" y="892" type="qcurve" smooth="yes"/>
      <point x="-113" y="885"/>
      <point x="-100" y="885" type="qcurve" smooth="yes"/>
      <point x="-93" y="885"/>
      <point x="-81" y="888" type="qcurve"/>
      <point x="-70" y="892"/>
      <point x="-56" y="898" type="qcurve"/>
      <point x="-56" y="999" type="line"/>
      <point x="-122" y="999" type="line"/>
      <point x="-122" y="1033" type="line"/>
      <point x="52" y="1033" type="line"/>
      <point x="52" y="999" type="line"/>
      <point x="-12" y="999" type="line"/>
      <point x="-12" y="729" type="line"/>
      <point x="-56" y="729" type="line"/>
      <point x="-56" y="860" type="line"/>
      <point x="-62" y="856"/>
      <point x="-69" y="854" type="qcurve" smooth="yes"/>
      <point x="-79" y="851"/>
      <point x="-89" y="851" type="qcurve" smooth="yes"/>
      <point x="-105" y="851"/>
      <point x="-118" y="853" type="qcurve" smooth="yes"/>
      <point x="-124" y="855" type="line"/>
      <point x="-123" y="853"/>
      <point x="-123" y="851" type="qcurve" smooth="yes"/>
      <point x="-119" y="842"/>
      <point x="-119" y="831" type="qcurve" smooth="yes"/>
      <point x="-119" y="797"/>
      <point x="-147" y="774" type="qcurve" smooth="yes"/>
      <point x="-175" y="750"/>
    </contour>
  </outline>
</glyph>
<glyph name="ucombiningletterdeva" format="1">
  <advance width="0"/>
  <unicode hex="A8EB"/>
  <outline>
    <contour>
      <point x="-137" y="681" type="move" name="_DVAnchor3"/>
    </contour>
    <contour>
      <point x="-349" y="998" type="line"/>
      <point x="-349" y="1032" type="line"/>
      <point x="24" y="1032" type="line"/>
      <point x="24" y="998" type="line"/>
      <point x="-50" y="998" type="line"/>
      <point x="-43" y="990"/>
      <point x="-39" y="981" type="qcurve" smooth="yes"/>
      <point x="-33" y="968"/>
      <point x="-33" y="954" type="qcurve" smooth="yes"/>
      <point x="-33" y="934"/>
      <point x="-43" y="917" type="qcurve" smooth="yes"/>
      <point x="-51" y="904"/>
      <point x="-64" y="896" type="qcurve"/>
      <point x="-45" y="888"/>
      <point x="-33" y="871" type="qcurve" smooth="yes"/>
      <point x="-18" y="851"/>
      <point x="-18" y="824" type="qcurve" smooth="yes"/>
      <point x="-18" y="783"/>
      <point x="-49" y="757" type="qcurve" smooth="yes"/>
      <point x="-79" y="732"/>
      <point x="-122" y="732" type="qcurve" smooth="yes"/>
      <point x="-180" y="732"/>
      <point x="-235" y="782" type="qcurve" smooth="yes"/>
      <point x="-288" y="830"/>
      <point x="-329" y="918" type="qcurve"/>
      <point x="-330" y="922" type="line"/>
      <point x="-293" y="935" type="line"/>
      <point x="-292" y="932" type="line"/>
      <point x="-257" y="854"/>
      <point x="-211" y="812" type="qcurve"/>
      <point x="-167" y="770"/>
      <point x="-122" y="770" type="qcurve" smooth="yes"/>
      <point x="-97" y="770"/>
      <point x="-80" y="784" type="qcurve" smooth="yes"/>
      <point x="-62" y="799"/>
      <point x="-62" y="847"/>
      <point x="-95" y="880"/>
      <point x="-118" y="880" type="qcurve" smooth="yes"/>
      <point x="-194" y="880" type="line"/>
      <point x="-213" y="913" type="line"/>
      <point x="-125" y="913" type="line" smooth="yes"/>
      <point x="-105" y="913"/>
      <point x="-91" y="926" type="qcurve" smooth="yes"/>
      <point x="-77" y="938"/>
      <point x="-77" y="954" type="qcurve" smooth="yes"/>
      <point x="-77" y="966"/>
      <point x="-94" y="988"/>
      <point x="-108" y="998" type="qcurve"/>
    </contour>
  </outline>
</glyph>
<glyph name="kacombiningletterdeva" format="1">
  <advance width="0"/>
  <unicode hex="A8EC"/>
  <outline>
    <contour>
      <point x="-131" y="681" type="move" name="_DVAnchor3"/>
    </contour>
    <contour>
      <point x="-325" y="998" type="line"/>
      <point x="-325" y="1032" type="line"/>
      <point x="59" y="1032" type="line"/>
      <point x="59" y="998" type="line"/>
      <point x="-104" y="998" type="line"/>
      <point x="-104" y="931" type="line"/>
      <point x="-92" y="943"/>
      <point x="-76" y="951" type="qcurve" smooth="yes"/>
      <point x="-55" y="961"/>
      <point x="-30" y="961" type="qcurve" smooth="yes"/>
      <point x="8" y="961"/>
      <point x="59" y="912"/>
      <point x="59" y="877" type="qcurve" smooth="yes"/>
      <point x="59" y="847"/>
      <point x="40" y="818" type="qcurve" smooth="yes"/>
      <point x="22" y="790"/>
      <point x="-12" y="767" type="qcurve"/>
      <point x="-14" y="766" type="line"/>
      <point x="-56" y="788" type="line"/>
      <point x="-50" y="791" type="line"/>
      <point x="-19" y="808"/>
      <point x="-2" y="831" type="qcurve" smooth="yes"/>
      <point x="15" y="854"/>
      <point x="15" y="877" type="qcurve" smooth="yes"/>
      <point x="15" y="896"/>
      <point x="-11" y="923"/>
      <point x="-30" y="923" type="qcurve" smooth="yes"/>
      <point x="-54" y="923"/>
      <point x="-75" y="908" type="qcurve" smooth="yes"/>
      <point x="-96" y="894"/>
      <point x="-104" y="870" type="qcurve"/>
      <point x="-104" y="728" type="line"/>
      <point x="-148" y="728" type="line"/>
      <point x="-148" y="813" type="line"/>
      <point x="-160" y="803"/>
      <point x="-175" y="798" type="qcurve" smooth="yes"/>
      <point x="-195" y="790"/>
      <point x="-218" y="790" type="qcurve" smooth="yes"/>
      <point x="-260" y="790"/>
      <point x="-289" y="814" type="qcurve" smooth="yes"/>
      <point x="-318" y="837"/>
      <point x="-318" y="871" type="qcurve" smooth="yes"/>
      <point x="-318" y="908"/>
      <point x="-284" y="935" type="qcurve" smooth="yes"/>
      <point x="-251" y="961"/>
      <point x="-204" y="961" type="qcurve" smooth="yes"/>
      <point x="-190" y="961"/>
      <point x="-180" y="959" type="qcurve" smooth="yes"/>
      <point x="-170" y="957"/>
      <point x="-165" y="954" type="qcurve"/>
      <point x="-162" y="953" type="line"/>
      <point x="-171" y="916" type="line"/>
      <point x="-175" y="918" type="line" smooth="yes"/>
      <point x="-182" y="921"/>
      <point x="-196" y="923"/>
      <point x="-204" y="923" type="qcurve" smooth="yes"/>
      <point x="-233" y="923"/>
      <point x="-254" y="908" type="qcurve"/>
      <point x="-274" y="892"/>
      <point x="-274" y="871" type="qcurve" smooth="yes"/>
      <point x="-274" y="853"/>
      <point x="-258" y="840" type="qcurve" smooth="yes"/>
      <point x="-241" y="827"/>
      <point x="-218" y="827" type="qcurve" smooth="yes"/>
      <point x="-198" y="827"/>
      <point x="-179" y="837" type="qcurve" smooth="yes"/>
      <point x="-160" y="847"/>
      <point x="-148" y="863" type="qcurve"/>
      <point x="-148" y="998" type="line"/>
    </contour>
  </outline>
</glyph>
<glyph name="pacombiningletterdeva" format="1">
  <advance width="0"/>
  <unicode hex="A8EE"/>
  <outline>
    <contour>
      <point x="-137" y="681" type="move" name="_DVAnchor3"/>
    </contour>
    <contour>
      <point x="-153" y="851" type="qcurve" smooth="yes"/>
      <point x="-131" y="851"/>
      <point x="-112" y="862" type="qcurve" smooth="yes"/>
      <point x="-93" y="872"/>
      <point x="-83" y="890" type="qcurve"/>
      <point x="-83" y="998" type="line"/>
      <point x="-212" y="998" type="line"/>
      <point x="-212" y="895" type="line" smooth="yes"/>
      <point x="-212" y="877"/>
      <point x="-195" y="864" type="qcurve" smooth="yes"/>
      <point x="-178" y="851"/>
    </contour>
    <contour>
      <point x="-257" y="895" type="qcurve" smooth="yes"/>
      <point x="-257" y="998" type="line"/>
      <point x="-296" y="998" type="line"/>
      <point x="-296" y="1032" type="line"/>
      <point x="25" y="1032" type="line"/>
      <point x="25" y="998" type="line"/>
      <point x="-38" y="998" type="line"/>
      <point x="-38" y="728" type="line"/>
      <point x="-83" y="728" type="line"/>
      <point x="-83" y="837" type="line"/>
      <point x="-97" y="827"/>
      <point x="-113" y="821" type="qcurve" smooth="yes"/>
      <point x="-133" y="814"/>
      <point x="-153" y="814" type="qcurve" smooth="yes"/>
      <point x="-196" y="814"/>
      <point x="-226" y="837" type="qcurve" smooth="yes"/>
      <point x="-257" y="861"/>
    </contour>
  </outline>
</glyph>
<glyph name="racombiningletterdeva" format="1">
  <advance width="0"/>
  <unicode hex="A8EF"/>
  <outline>
    <contour>
      <point x="-137" y="681" type="move" name="_DVAnchor3"/>
    </contour>
    <contour>
      <point x="-281" y="998" type="line"/>
      <point x="-281" y="1032" type="line"/>
      <point x="-16" y="1032" type="line"/>
      <point x="-16" y="998" type="line"/>
      <point x="-66" y="998" type="line"/>
      <point x="-66" y="933" type="line" smooth="yes"/>
      <point x="-66" y="904"/>
      <point x="-91" y="884" type="qcurve" smooth="yes"/>
      <point x="-115" y="864"/>
      <point x="-148" y="864" type="qcurve" smooth="yes"/>
      <point x="-153" y="864"/>
      <point x="-161" y="866" type="qcurve" smooth="yes"/>
      <point x="-164" y="867"/>
      <point x="-169" y="868" type="qcurve"/>
      <point x="-146" y="839"/>
      <point x="-119" y="813" type="qcurve" smooth="yes"/>
      <point x="-87" y="783"/>
      <point x="-46" y="756" type="qcurve"/>
      <point x="-42" y="753" type="line"/>
      <point x="-69" y="727" type="line"/>
      <point x="-72" y="729" type="line" smooth="yes"/>
      <point x="-132" y="769"/>
      <point x="-228" y="870"/>
      <point x="-262" y="928" type="qcurve"/>
      <point x="-264" y="932" type="line"/>
      <point x="-224" y="950" type="line"/>
      <point x="-222" y="947" type="line"/>
      <point x="-213" y="926"/>
      <point x="-172" y="902"/>
      <point x="-148" y="902" type="qcurve" smooth="yes"/>
      <point x="-132" y="902"/>
      <point x="-122" y="911" type="qcurve" smooth="yes"/>
      <point x="-111" y="920"/>
      <point x="-111" y="933" type="qcurve" smooth="yes"/>
      <point x="-111" y="998" type="line"/>
    </contour>
  </outline>
</glyph>
<glyph name="vicombiningletterdeva" format="1">
  <advance width="0"/>
  <unicode hex="A8F0"/>
  <outline>
    <contour>
      <point x="-137" y="681" type="move" name="_DVAnchor3"/>
    </contour>
    <contour>
      <point x="-39" y="1010" type="line"/>
      <point x="-66" y="1047"/>
      <point x="-105" y="1069" type="qcurve" smooth="yes"/>
      <point x="-144" y="1090"/>
      <point x="-185" y="1090" type="qcurve" smooth="yes"/>
      <point x="-214" y="1090"/>
      <point x="-234" y="1075" type="qcurve" smooth="yes"/>
      <point x="-254" y="1061"/>
      <point x="-254" y="1040" type="qcurve" smooth="yes"/>
      <point x="-254" y="1029"/>
      <point x="-252" y="1021" type="qcurve"/>
      <point x="-249" y="1014"/>
      <point x="-246" y="1010" type="qcurve"/>
    </contour>
    <contour>
      <point x="9" y="1010" type="line"/>
      <point x="79" y="1010" type="line"/>
      <point x="79" y="979" type="line"/>
      <point x="22" y="979" type="line"/>
      <point x="22" y="739" type="line"/>
      <point x="-17" y="739" type="line"/>
      <point x="-17" y="819" type="line"/>
      <point x="-29" y="809"/>
      <point x="-44" y="804" type="qcurve" smooth="yes"/>
      <point x="-63" y="797"/>
      <point x="-83" y="797" type="qcurve" smooth="yes"/>
      <point x="-126" y="797"/>
      <point x="-156" y="818" type="qcurve" smooth="yes"/>
      <point x="-186" y="840"/>
      <point x="-186" y="871" type="qcurve" smooth="yes"/>
      <point x="-186" y="903"/>
      <point x="-156" y="925" type="qcurve" smooth="yes"/>
      <point x="-126" y="946"/>
      <point x="-83" y="946" type="qcurve" smooth="yes"/>
      <point x="-71" y="946"/>
      <point x="-48" y="941"/>
      <point x="-39" y="935" type="qcurve"/>
      <point x="-35" y="933" type="line"/>
      <point x="-56" y="907" type="line"/>
      <point x="-59" y="908" type="line"/>
      <point x="-64" y="912"/>
      <point x="-76" y="916"/>
      <point x="-83" y="916" type="qcurve" smooth="yes"/>
      <point x="-110" y="916"/>
      <point x="-128" y="902" type="qcurve" smooth="yes"/>
      <point x="-146" y="889"/>
      <point x="-146" y="871" type="qcurve" smooth="yes"/>
      <point x="-146" y="855"/>
      <point x="-128" y="842" type="qcurve" smooth="yes"/>
      <point x="-110" y="830"/>
      <point x="-83" y="830" type="qcurve" smooth="yes"/>
      <point x="-65" y="830"/>
      <point x="-47" y="840" type="qcurve" smooth="yes"/>
      <point x="-30" y="850"/>
      <point x="-17" y="867" type="qcurve"/>
      <point x="-17" y="979" type="line"/>
      <point x="-244" y="979" type="line"/>
      <point x="-244" y="739" type="line"/>
      <point x="-284" y="739" type="line"/>
      <point x="-284" y="979" type="line"/>
      <point x="-340" y="979" type="line"/>
      <point x="-340" y="1010" type="line"/>
      <point x="-287" y="1010" type="line"/>
      <point x="-289" y="1014"/>
      <point x="-291" y="1019" type="qcurve" smooth="yes"/>
      <point x="-294" y="1028"/>
      <point x="-294" y="1040" type="qcurve" smooth="yes"/>
      <point x="-294" y="1074"/>
      <point x="-261" y="1097" type="qcurve" smooth="yes"/>
      <point x="-229" y="1120"/>
      <point x="-185" y="1120" type="qcurve" smooth="yes"/>
      <point x="-132" y="1120"/>
      <point x="-30" y="1063"/>
      <point x="6" y="1013" type="qcurve"/>
    </contour>
  </outline>
</glyph>
<glyph name="avagrahacombiningsigndeva" format="1">
  <advance width="0"/>
  <unicode hex="A8F1"/>
  <outline>
    <contour>
      <point x="-137" y="681" type="move" name="_DVAnchor3"/>
    </contour>
    <contour>
      <point x="-125" y="736" type="qcurve" smooth="yes"/>
      <point x="-165" y="736"/>
      <point x="-235" y="789"/>
      <point x="-251" y="832" type="qcurve"/>
      <point x="-252" y="835" type="line"/>
      <point x="-212" y="852" type="line"/>
      <point x="-211" y="849" type="line"/>
      <point x="-198" y="816"/>
      <point x="-174" y="796" type="qcurve" smooth="yes"/>
      <point x="-151" y="776"/>
      <point x="-125" y="776" type="qcurve" smooth="yes"/>
      <point x="-107" y="776"/>
      <point x="-81" y="803"/>
      <point x="-81" y="823" type="qcurve" smooth="yes"/>
      <point x="-81" y="841"/>
      <point x="-100" y="862" type="qcurve"/>
      <point x="-121" y="883"/>
      <point x="-156" y="902" type="qcurve"/>
      <point x="-182" y="914"/>
      <point x="-196" y="934" type="qcurve" smooth="yes"/>
      <point x="-210" y="953"/>
      <point x="-210" y="975" type="qcurve" smooth="yes"/>
      <point x="-210" y="999"/>
      <point x="-186" y="1016" type="qcurve" smooth="yes"/>
      <point x="-162" y="1032"/>
      <point x="-129" y="1032" type="qcurve" smooth="yes"/>
      <point x="-36" y="1032" type="line"/>
      <point x="-36" y="995" type="line"/>
      <point x="-129" y="995" type="line" smooth="yes"/>
      <point x="-145" y="995"/>
      <point x="-156" y="988" type="qcurve" smooth="yes"/>
      <point x="-166" y="982"/>
      <point x="-166" y="974" type="qcurve" smooth="yes"/>
      <point x="-166" y="961"/>
      <point x="-148" y="944" type="qcurve" smooth="yes"/>
      <point x="-130" y="926"/>
      <point x="-97" y="909" type="qcurve" smooth="yes"/>
      <point x="-69" y="894"/>
      <point x="-53" y="872" type="qcurve" smooth="yes"/>
      <point x="-36" y="849"/>
      <point x="-36" y="823" type="qcurve" smooth="yes"/>
      <point x="-36" y="787"/>
      <point x="-88" y="736"/>
    </contour>
  </outline>
</glyph>
<glyph name="gapfillerdeva" format="1">
  <advance width="709"/>
  <unicode hex="A8F9"/>
  <outline>
    <contour>
      <point x="529" y="668" type="move" name="DVAnchor3"/>
    </contour>
    <contour>
      <point x="324" y="56" type="move" name="DVAnchor0"/>
    </contour>
    <contour>
      <point x="409" y="257" type="line"/>
      <point x="408" y="258"/>
      <point x="404" y="270" type="qcurve" smooth="yes"/>
      <point x="382" y="329"/>
      <point x="384" y="362" type="qcurve" smooth="yes"/>
      <point x="386" y="419"/>
      <point x="414" y="454" type="qcurve" smooth="yes"/>
      <point x="455" y="506"/>
      <point x="528" y="506" type="qcurve"/>
      <point x="590" y="502"/>
      <point x="626" y="470" type="qcurve"/>
      <point x="670" y="428"/>
      <point x="670" y="366" type="qcurve" smooth="yes"/>
      <point x="670" y="249"/>
      <point x="437" y="33"/>
      <point x="310" y="33" type="qcurve" smooth="yes"/>
      <point x="217" y="33"/>
      <point x="84" y="142"/>
      <point x="84" y="220" type="qcurve" smooth="yes"/>
      <point x="84" y="275"/>
      <point x="102" y="308" type="qcurve" smooth="yes"/>
      <point x="154" y="407"/>
      <point x="258" y="413" type="qcurve"/>
      <point x="300" y="413" type="line"/>
      <point x="300" y="346" type="line"/>
      <point x="262" y="346" type="line" smooth="yes"/>
      <point x="213" y="346"/>
      <point x="182" y="309" type="qcurve" smooth="yes"/>
      <point x="152" y="272"/>
      <point x="152" y="172"/>
      <point x="244" y="100"/>
      <point x="310" y="100" type="qcurve" smooth="yes"/>
      <point x="353" y="100"/>
      <point x="396" y="117" type="qcurve" smooth="yes"/>
      <point x="518" y="166"/>
      <point x="582" y="285" type="qcurve" smooth="yes"/>
      <point x="603" y="324"/>
      <point x="603" y="366" type="qcurve" smooth="yes"/>
      <point x="603" y="397"/>
      <point x="557" y="439"/>
      <point x="523" y="439" type="qcurve" smooth="yes"/>
      <point x="493" y="439"/>
      <point x="450" y="393"/>
      <point x="450" y="360" type="qcurve" smooth="yes"/>
      <point x="450" y="318"/>
      <point x="470" y="281" type="qcurve"/>
    </contour>
  </outline>
</glyph>
<glyph name="eightdeva.np" format="1">
  <advance width="664"/>
  <outline>
    <contour>
      <point x="425" y="516" type="line"/>
      <point x="193" y="292" type="line" smooth="yes"/>
      <point x="179" y="278"/>
      <point x="171" y="242" type="qcurve" smooth="yes"/>
      <point x="168" y="228"/>
      <point x="168" y="213" type="qcurve" smooth="yes"/>
      <point x="168" y="200"/>
      <point x="170" y="187" type="qcurve" smooth="yes"/>
      <point x="189" y="60"/>
      <point x="307" y="60" type="qcurve" smooth="yes"/>
      <point x="347" y="60"/>
      <point x="438" y="116"/>
      <point x="480" y="166" type="qcurve"/>
      <point x="527" y="120" type="line"/>
      <point x="479" y="63"/>
      <point x="364" y="0"/>
      <point x="307" y="0" type="qcurve" smooth="yes"/>
      <point x="206" y="0"/>
      <point x="159" y="44" type="qcurve" smooth="yes"/>
      <point x="114" y="87"/>
      <point x="99" y="174" type="qcurve" smooth="yes"/>
      <point x="96" y="191"/>
      <point x="96" y="208" type="qcurve" smooth="yes"/>
      <point x="96" y="229"/>
      <point x="101" y="250" type="qcurve" smooth="yes"/>
      <point x="114" y="306"/>
      <point x="136" y="326" type="qcurve" smooth="yes"/>
      <point x="342" y="518" type="line"/>
      <point x="66" y="519" type="line"/>
      <point x="66" y="578" type="line"/>
      <point x="547" y="578" type="line"/>
      <point x="549" y="517" type="line"/>
    </contour>
  </outline>
</glyph>
<glyph name="fivedeva.np" format="1">
  <advance width="665"/>
  <outline>
    <contour>
      <point x="412" y="73" type="qcurve"/>
      <point x="434.909" y="147.182"/>
      <point x="434.909" y="209.76" type="qcurve" smooth="yes"/>
      <point x="434.909" y="261.909"/>
      <point x="419" y="306" type="qcurve"/>
      <point x="397" y="290"/>
      <point x="342" y="273"/>
      <point x="313" y="273" type="qcurve" smooth="yes"/>
      <point x="225" y="273"/>
      <point x="100" y="402"/>
      <point x="100" y="493" type="qcurve" smooth="yes"/>
      <point x="100" y="555"/>
      <point x="127" y="667"/>
      <point x="153" y="712" type="qcurve"/>
      <point x="213" y="686" type="line"/>
      <point x="190" y="646"/>
      <point x="166" y="547"/>
      <point x="166" y="493" type="qcurve" smooth="yes"/>
      <point x="166" y="426"/>
      <point x="252" y="333"/>
      <point x="313" y="333" type="qcurve" smooth="yes"/>
      <point x="337" y="333"/>
      <point x="381" y="346"/>
      <point x="399" y="360" type="qcurve"/>
      <point x="393" y="374"/>
      <point x="386" y="431"/>
      <point x="386" y="473" type="qcurve" smooth="yes"/>
      <point x="386" y="517"/>
      <point x="433" y="579"/>
      <point x="466" y="579" type="qcurve" smooth="yes"/>
      <point x="494" y="579"/>
      <point x="533" y="517"/>
      <point x="533" y="473" type="qcurve" smooth="yes"/>
      <point x="533" y="445"/>
      <point x="505" y="384"/>
      <point x="479" y="353" type="qcurve"/>
      <point x="491.779" y="271.619"/>
      <point x="491.779" y="206.75" type="qcurve" smooth="yes"/>
      <point x="491.779" y="78.7168"/>
      <point x="442" y="15" type="qcurve"/>
      <point x="474" y="-41"/>
      <point x="519" y="-97"/>
      <point x="539" y="-106" type="qcurve"/>
      <point x="488" y="-150" type="line"/>
      <point x="425" y="-112"/>
      <point x="370" y="6" type="qcurve"/>
      <point x="320" y="6"/>
      <point x="246" y="73"/>
      <point x="246" y="114" type="qcurve" smooth="yes"/>
      <point x="246" y="136"/>
      <point x="263" y="151.5" type="qcurve" smooth="yes"/>
      <point x="278.97" y="166.061"/>
      <point x="304.646" y="166.061" type="qcurve" smooth="yes"/>
      <point x="306.303" y="166.061"/>
      <point x="308" y="166" type="qcurve" smooth="yes"/>
      <point x="347" y="165"/>
      <point x="374" y="137" type="qcurve" smooth="yes"/>
      <point x="404" y="106"/>
    </contour>
  </outline>
</glyph>
<glyph name="isign_ra_virama.alt1" format="1">
  <advance width="266"/>
  <outline>
    <contour>
      <point x="-13" y="606" type="line"/>
      <point x="-13" y="666" type="line"/>
      <point x="100" y="666" type="line"/>
      <point x="91" y="678"/>
      <point x="80" y="708"/>
      <point x="80" y="726" type="qcurve" smooth="yes"/>
      <point x="80" y="816"/>
      <point x="230" y="945"/>
      <point x="393" y="945" type="qcurve" smooth="yes"/>
      <point x="538" y="945"/>
      <point x="660.5" y="885" type="qcurve" smooth="yes"/>
      <point x="719.898" y="855.907"/>
      <point x="789.052" y="803.069" type="qcurve"/>
      <point x="790.559" y="861.425"/>
      <point x="835.5" y="902.5" type="qcurve" smooth="yes"/>
      <point x="882" y="945"/>
      <point x="949" y="945" type="qcurve" smooth="yes"/>
      <point x="967" y="945"/>
      <point x="1003" y="939"/>
      <point x="1022" y="932" type="qcurve"/>
      <point x="1022" y="872" type="line"/>
      <point x="994" y="883"/>
      <point x="958" y="892"/>
      <point x="949" y="892" type="qcurve" smooth="yes"/>
      <point x="910" y="892"/>
      <point x="856" y="838"/>
      <point x="856" y="799" type="qcurve" smooth="yes"/>
      <point x="856" y="763.934"/>
      <point x="877.557" y="729.316" type="qcurve"/>
      <point x="911.295" y="699.052"/>
      <point x="947" y="664" type="qcurve"/>
      <point x="867" y="664" type="line"/>
      <point x="855.213" y="674.053"/>
      <point x="844.869" y="684.888" type="qcurve" smooth="yes"/>
      <point x="703.925" y="815.675"/>
      <point x="602" y="852" type="qcurve" smooth="yes"/>
      <point x="508" y="886"/>
      <point x="403" y="886" type="qcurve" smooth="yes"/>
      <point x="268" y="886"/>
      <point x="146" y="792"/>
      <point x="146" y="726" type="qcurve" smooth="yes"/>
      <point x="146" y="708"/>
      <point x="157" y="678"/>
      <point x="166" y="666" type="qcurve"/>
      <point x="280" y="666" type="line"/>
      <point x="280" y="606" type="line"/>
      <point x="166" y="606" type="line"/>
      <point x="166" y="0" type="line"/>
      <point x="100" y="0" type="line"/>
      <point x="100" y="606" type="line"/>
    </contour>
  </outline>
</glyph>
<glyph name="isign_ra_virama.alt2" format="1">
  <advance width="266"/>
  <outline>
    <contour>
      <point x="-13" y="606" type="line"/>
      <point x="-13" y="666" type="line"/>
      <point x="100" y="666" type="line"/>
      <point x="91" y="678"/>
      <point x="80" y="708"/>
      <point x="80" y="726" type="qcurve" smooth="yes"/>
      <point x="80" y="816"/>
      <point x="310" y="945"/>
      <point x="473" y="945" type="qcurve" smooth="yes"/>
      <point x="718" y="945"/>
      <point x="911.5" y="875.5" type="qcurve" smooth="yes"/>
      <point x="995.486" y="845.334"/>
      <point x="1063.18" y="804.336" type="qcurve"/>
      <point x="1063" y="807.666"/>
      <point x="1063" y="811" type="qcurve" smooth="yes"/>
      <point x="1063" y="872"/>
      <point x="1156" y="957"/>
      <point x="1223" y="957" type="qcurve" smooth="yes"/>
      <point x="1241" y="957"/>
      <point x="1277" y="951"/>
      <point x="1296" y="944" type="qcurve"/>
      <point x="1296" y="884" type="line"/>
      <point x="1268" y="895"/>
      <point x="1232" y="904"/>
      <point x="1223" y="904" type="qcurve" smooth="yes"/>
      <point x="1184" y="904"/>
      <point x="1130" y="850"/>
      <point x="1130" y="811" type="qcurve" smooth="yes"/>
      <point x="1130" y="774"/>
      <point x="1155" y="738.5" type="qcurve" smooth="yes"/>
      <point x="1156.26" y="736.713"/>
      <point x="1157.56" y="734.953" type="qcurve" smooth="yes"/>
      <point x="1179.67" y="715.193"/>
      <point x="1199.16" y="693.693" type="qcurve"/>
      <point x="1210.29" y="685.388"/>
      <point x="1223" y="678" type="qcurve"/>
      <point x="1136" y="678" type="line" smooth="yes"/>
      <point x="1135.41" y="678.499"/>
      <point x="1134.83" y="679" type="qcurve" smooth="yes"/>
      <point x="1132" y="679" type="line"/>
      <point x="1033" y="778"/>
      <point x="690" y="886"/>
      <point x="473" y="886" type="qcurve" smooth="yes"/>
      <point x="338" y="886"/>
      <point x="146" y="792"/>
      <point x="146" y="726" type="qcurve" smooth="yes"/>
      <point x="146" y="708"/>
      <point x="157" y="678"/>
      <point x="166" y="666" type="qcurve"/>
      <point x="280" y="666" type="line"/>
      <point x="280" y="606" type="line"/>
      <point x="166" y="606" type="line"/>
      <point x="166" y="0" type="line"/>
      <point x="100" y="0" type="line"/>
      <point x="100" y="606" type="line"/>
    </contour>
  </outline>
</glyph>
<glyph name="isign_ra_virama.alt4" format="1">
  <advance width="266"/>
  <outline>
    <contour>
      <point x="-13" y="606" type="line"/>
      <point x="-13" y="666" type="line"/>
      <point x="98" y="666" type="line" smooth="yes"/>
      <point x="96.1934" y="666.612"/>
      <point x="95.4551" y="702" type="qcurve" smooth="yes"/>
      <point x="95" y="726"/>
      <point x="95" y="756" type="qcurve" smooth="yes"/>
      <point x="95" y="845.007"/>
      <point x="168.5" y="895.5" type="qcurve" smooth="yes"/>
      <point x="240.829" y="946"/>
      <point x="360" y="945" type="qcurve"/>
      <point x="485" y="945"/>
      <point x="600" y="867" type="qcurve" smooth="yes"/>
      <point x="618.169" y="854.677"/>
      <point x="635.239" y="841.206" type="qcurve"/>
      <point x="646.033" y="875.568"/>
      <point x="675.5" y="902.5" type="qcurve" smooth="yes"/>
      <point x="722" y="945"/>
      <point x="789" y="945" type="qcurve" smooth="yes"/>
      <point x="807" y="945"/>
      <point x="843" y="939"/>
      <point x="862" y="932" type="qcurve"/>
      <point x="862" y="872" type="line"/>
      <point x="834" y="883"/>
      <point x="798" y="892"/>
      <point x="789" y="892" type="qcurve" smooth="yes"/>
      <point x="754.225" y="892"/>
      <point x="723" y="867" type="qcurve" smooth="yes"/>
      <point x="686.928" y="838.648"/>
      <point x="696.5" y="791.498" type="qcurve" smooth="yes"/>
      <point x="697.149" y="788.33"/>
      <point x="728.25" y="752.249" type="qcurve" smooth="yes"/>
      <point x="755.235" y="721.984"/>
      <point x="789" y="666" type="qcurve"/>
      <point x="787.226" y="665.978"/>
      <point x="785.451" y="665.957" type="qcurve"/>
      <point x="785.726" y="665.479"/>
      <point x="786" y="665" type="qcurve" smooth="yes"/>
      <point x="707" y="665" type="line"/>
      <point x="696.228" y="683.466"/>
      <point x="684.069" y="700.693" type="qcurve" smooth="yes"/>
      <point x="671.91" y="717.357"/>
      <point x="657.75" y="732.749" type="qcurve" smooth="yes"/>
      <point x="650.223" y="740.931"/>
      <point x="644.667" y="749.37" type="qcurve"/>
      <point x="606.162" y="790.972"/>
      <point x="557.5" y="823.5" type="qcurve" smooth="yes"/>
      <point x="464" y="886"/>
      <point x="360" y="886" type="qcurve" smooth="yes"/>
      <point x="257.563" y="886"/>
      <point x="212" y="852.5" type="qcurve" smooth="yes"/>
      <point x="163.02" y="816.488"/>
      <point x="161" y="756" type="qcurve" smooth="yes"/>
      <point x="159.765" y="714.887"/>
      <point x="161.455" y="702" type="qcurve" smooth="yes"/>
      <point x="165.515" y="676.999"/>
      <point x="164" y="666" type="qcurve"/>
      <point x="280" y="666" type="line"/>
      <point x="280" y="606" type="line"/>
      <point x="166" y="606" type="line"/>
      <point x="166" y="0" type="line"/>
      <point x="100" y="0" type="line"/>
      <point x="100" y="606" type="line"/>
    </contour>
  </outline>
</glyph>
<glyph name="isign_ra_virama.ja" format="1">
  <advance width="266"/>
  <outline>
    <contour>
      <point x="-13" y="606" type="line"/>
      <point x="-13" y="666" type="line"/>
      <point x="100" y="666" type="line"/>
      <point x="91" y="678"/>
      <point x="80" y="708"/>
      <point x="80" y="726" type="qcurve" smooth="yes"/>
      <point x="80" y="816"/>
      <point x="230" y="945"/>
      <point x="393" y="945" type="qcurve" smooth="yes"/>
      <point x="486" y="945"/>
      <point x="608.5" y="885" type="qcurve" smooth="yes"/>
      <point x="668.742" y="855.494"/>
      <point x="739.021" y="801.561" type="qcurve"/>
      <point x="739.979" y="860.895"/>
      <point x="785.5" y="902.5" type="qcurve" smooth="yes"/>
      <point x="832" y="945"/>
      <point x="899" y="945" type="qcurve" smooth="yes"/>
      <point x="917" y="945"/>
      <point x="953" y="939"/>
      <point x="972" y="932" type="qcurve"/>
      <point x="972" y="872" type="line"/>
      <point x="944" y="883"/>
      <point x="908" y="892"/>
      <point x="899" y="892" type="qcurve" smooth="yes"/>
      <point x="860" y="892"/>
      <point x="806" y="838"/>
      <point x="806" y="799" type="qcurve" smooth="yes"/>
      <point x="806" y="762"/>
      <point x="831" y="726.5" type="qcurve" smooth="yes"/>
      <point x="833.245" y="723.312"/>
      <point x="835.635" y="720.209" type="qcurve" smooth="yes"/>
      <point x="858.181" y="699.687"/>
      <point x="881.59" y="677.063" type="qcurve"/>
      <point x="889.891" y="671.296"/>
      <point x="899" y="666" type="qcurve"/>
      <point x="892.96" y="666" type="line" smooth="yes"/>
      <point x="893.979" y="665.002"/>
      <point x="895" y="664" type="qcurve"/>
      <point x="815" y="664" type="line"/>
      <point x="813.955" y="665.003"/>
      <point x="812.912" y="666" type="qcurve" smooth="yes"/>
      <point x="812" y="666" type="line"/>
      <point x="798.028" y="677.918"/>
      <point x="786.504" y="690.764" type="qcurve"/>
      <point x="649.616" y="816.498"/>
      <point x="550" y="852" type="qcurve" smooth="yes"/>
      <point x="456" y="886"/>
      <point x="403" y="886" type="qcurve" smooth="yes"/>
      <point x="268" y="886"/>
      <point x="146" y="792"/>
      <point x="146" y="726" type="qcurve" smooth="yes"/>
      <point x="146" y="708"/>
      <point x="157" y="678"/>
      <point x="166" y="666" type="qcurve"/>
      <point x="280" y="666" type="line"/>
      <point x="280" y="606" type="line"/>
      <point x="166" y="606" type="line"/>
      <point x="166" y="0" type="line"/>
      <point x="100" y="0" type="line"/>
      <point x="100" y="606" type="line"/>
    </contour>
  </outline>
</glyph>
<glyph name="isign_ra_virama_anusvara.alt1" format="1">
  <advance width="266"/>
  <outline>
    <contour>
      <point x="-13" y="606" type="line"/>
      <point x="-13" y="666" type="line"/>
      <point x="100" y="666" type="line"/>
      <point x="91" y="678"/>
      <point x="80" y="708"/>
      <point x="80" y="726" type="qcurve" smooth="yes"/>
      <point x="80" y="816"/>
      <point x="230" y="945"/>
      <point x="393" y="945" type="qcurve" smooth="yes"/>
      <point x="538" y="945"/>
      <point x="660.5" y="885" type="qcurve" smooth="yes"/>
      <point x="729.868" y="851.024"/>
      <point x="812.544" y="784.661" type="qcurve"/>
      <point x="812" y="791.841"/>
      <point x="812" y="799" type="qcurve" smooth="yes"/>
      <point x="812" y="860"/>
      <point x="895" y="945"/>
      <point x="952" y="945" type="qcurve" smooth="yes"/>
      <point x="983" y="945"/>
      <point x="1027" y="939"/>
      <point x="1039" y="932" type="qcurve"/>
      <point x="1039" y="879" type="line"/>
      <point x="1024" y="886"/>
      <point x="981" y="892"/>
      <point x="952" y="892" type="qcurve" smooth="yes"/>
      <point x="921" y="892"/>
      <point x="879" y="838"/>
      <point x="879" y="799" type="qcurve" smooth="yes"/>
      <point x="879" y="769.059"/>
      <point x="898" y="730.5" type="qcurve" smooth="yes"/>
      <point x="915" y="696"/>
      <point x="947" y="664" type="qcurve"/>
      <point x="867" y="664" type="line"/>
      <point x="711.842" y="812.853"/>
      <point x="602" y="852" type="qcurve" smooth="yes"/>
      <point x="508" y="886"/>
      <point x="403" y="886" type="qcurve" smooth="yes"/>
      <point x="268" y="886"/>
      <point x="146" y="792"/>
      <point x="146" y="726" type="qcurve" smooth="yes"/>
      <point x="146" y="708"/>
      <point x="157" y="678"/>
      <point x="166" y="666" type="qcurve"/>
      <point x="280" y="666" type="line"/>
      <point x="280" y="606" type="line"/>
      <point x="166" y="606" type="line"/>
      <point x="166" y="0" type="line"/>
      <point x="100" y="0" type="line"/>
      <point x="100" y="606" type="line"/>
    </contour>
    <contour>
      <point x="955" y="749" type="line"/>
      <point x="955" y="822" type="line"/>
      <point x="1029" y="822" type="line"/>
      <point x="1029" y="749" type="line"/>
    </contour>
  </outline>
</glyph>
<glyph name="isign_ra_virama_anusvara.alt2" format="1">
  <advance width="266"/>
  <outline>
    <contour>
      <point x="-13" y="606" type="line"/>
      <point x="-13" y="666" type="line"/>
      <point x="100" y="666" type="line"/>
      <point x="91" y="678"/>
      <point x="80" y="708"/>
      <point x="80" y="726" type="qcurve" smooth="yes"/>
      <point x="80" y="816"/>
      <point x="310" y="945"/>
      <point x="473" y="945" type="qcurve" smooth="yes"/>
      <point x="718" y="945"/>
      <point x="911.5" y="875.5" type="qcurve" smooth="yes"/>
      <point x="1001.31" y="843.242"/>
      <point x="1072.49" y="798.598" type="qcurve"/>
      <point x="1072" y="804.791"/>
      <point x="1072" y="811" type="qcurve" smooth="yes"/>
      <point x="1072" y="872"/>
      <point x="1155" y="957"/>
      <point x="1212" y="957" type="qcurve" smooth="yes"/>
      <point x="1243" y="957"/>
      <point x="1287" y="951"/>
      <point x="1299" y="944" type="qcurve"/>
      <point x="1299" y="891" type="line"/>
      <point x="1284" y="898"/>
      <point x="1241" y="904"/>
      <point x="1212" y="904" type="qcurve" smooth="yes"/>
      <point x="1181" y="904"/>
      <point x="1139" y="850"/>
      <point x="1139" y="811" type="qcurve" smooth="yes"/>
      <point x="1139" y="779"/>
      <point x="1159.5" y="745" type="qcurve" smooth="yes"/>
      <point x="1170.81" y="726.242"/>
      <point x="1185.62" y="708.092" type="qcurve"/>
      <point x="1199.41" y="693.944"/>
      <point x="1212" y="679" type="qcurve"/>
      <point x="1132" y="678" type="line"/>
      <point x="1126.51" y="683.493"/>
      <point x="1121.5" y="689.184" type="qcurve" smooth="yes"/>
      <point x="1024.07" y="780.811"/>
      <point x="861.5" y="832" type="qcurve" smooth="yes"/>
      <point x="690" y="886"/>
      <point x="473" y="886" type="qcurve" smooth="yes"/>
      <point x="338" y="886"/>
      <point x="146" y="792"/>
      <point x="146" y="726" type="qcurve" smooth="yes"/>
      <point x="146" y="708"/>
      <point x="157" y="678"/>
      <point x="166" y="666" type="qcurve"/>
      <point x="280" y="666" type="line"/>
      <point x="280" y="606" type="line"/>
      <point x="166" y="606" type="line"/>
      <point x="166" y="0" type="line"/>
      <point x="100" y="0" type="line"/>
      <point x="100" y="606" type="line"/>
    </contour>
    <contour>
      <point x="1200" y="771" type="line"/>
      <point x="1200" y="844" type="line"/>
      <point x="1274" y="844" type="line"/>
      <point x="1274" y="771" type="line"/>
    </contour>
  </outline>
</glyph>
<glyph name="isign_ra_virama_anusvara.alt4" format="1">
  <advance width="266"/>
  <outline>
    <contour>
      <point x="-13" y="606" type="line"/>
      <point x="-13" y="666" type="line"/>
      <point x="98" y="666" type="line" smooth="yes"/>
      <point x="96.1934" y="666.612"/>
      <point x="95.4551" y="702" type="qcurve" smooth="yes"/>
      <point x="95" y="726"/>
      <point x="95" y="756" type="qcurve" smooth="yes"/>
      <point x="95" y="845.007"/>
      <point x="168.5" y="895.5" type="qcurve" smooth="yes"/>
      <point x="240.829" y="946"/>
      <point x="360" y="945" type="qcurve"/>
      <point x="485" y="945"/>
      <point x="600" y="867" type="qcurve" smooth="yes"/>
      <point x="633.373" y="844.364"/>
      <point x="663.041" y="817.855" type="qcurve"/>
      <point x="668.571" y="866.73"/>
      <point x="703.5" y="902.5" type="qcurve" smooth="yes"/>
      <point x="745" y="945"/>
      <point x="802" y="945" type="qcurve" smooth="yes"/>
      <point x="833" y="945"/>
      <point x="877" y="939"/>
      <point x="889" y="932" type="qcurve"/>
      <point x="889" y="879" type="line"/>
      <point x="874" y="886"/>
      <point x="831" y="892"/>
      <point x="802" y="892" type="qcurve" smooth="yes"/>
      <point x="771" y="892"/>
      <point x="729" y="838"/>
      <point x="729" y="799" type="qcurve" smooth="yes"/>
      <point x="729" y="767.472"/>
      <point x="741.134" y="733.033" type="qcurve"/>
      <point x="765.416" y="700.95"/>
      <point x="786" y="665" type="qcurve"/>
      <point x="707" y="665" type="line"/>
      <point x="705.924" y="666.811"/>
      <point x="704.87" y="668.616" type="qcurve" smooth="yes"/>
      <point x="649.233" y="762.181"/>
      <point x="557.5" y="823.5" type="qcurve" smooth="yes"/>
      <point x="464" y="886"/>
      <point x="360" y="886" type="qcurve" smooth="yes"/>
      <point x="257.563" y="886"/>
      <point x="212" y="852.5" type="qcurve" smooth="yes"/>
      <point x="163.02" y="816.488"/>
      <point x="161" y="756" type="qcurve" smooth="yes"/>
      <point x="159.765" y="714.887"/>
      <point x="161.455" y="702" type="qcurve" smooth="yes"/>
      <point x="165.515" y="676.999"/>
      <point x="164" y="666" type="qcurve"/>
      <point x="280" y="666" type="line"/>
      <point x="280" y="606" type="line"/>
      <point x="166" y="606" type="line"/>
      <point x="166" y="0" type="line"/>
      <point x="100" y="0" type="line"/>
      <point x="100" y="606" type="line"/>
    </contour>
    <contour>
      <point x="810" y="749" type="line"/>
      <point x="810" y="822" type="line"/>
      <point x="884" y="822" type="line"/>
      <point x="884" y="749" type="line"/>
    </contour>
  </outline>
</glyph>
<glyph name="isign_ra_virama_anusvara.ja" format="1">
  <advance width="266"/>
  <outline>
    <contour>
      <point x="-13" y="606" type="line"/>
      <point x="-13" y="666" type="line"/>
      <point x="100" y="666" type="line"/>
      <point x="91" y="678"/>
      <point x="80" y="708"/>
      <point x="80" y="726" type="qcurve" smooth="yes"/>
      <point x="80" y="816"/>
      <point x="230" y="945"/>
      <point x="393" y="945" type="qcurve" smooth="yes"/>
      <point x="486" y="945"/>
      <point x="608.5" y="885" type="qcurve" smooth="yes"/>
      <point x="677.465" y="851.221"/>
      <point x="759.584" y="785.43" type="qcurve"/>
      <point x="759" y="792.206"/>
      <point x="759" y="799" type="qcurve" smooth="yes"/>
      <point x="759" y="860"/>
      <point x="842" y="945"/>
      <point x="899" y="945" type="qcurve" smooth="yes"/>
      <point x="930" y="945"/>
      <point x="974" y="939"/>
      <point x="986" y="932" type="qcurve"/>
      <point x="986" y="879" type="line"/>
      <point x="971" y="886"/>
      <point x="928" y="892"/>
      <point x="899" y="892" type="qcurve" smooth="yes"/>
      <point x="868" y="892"/>
      <point x="826" y="838"/>
      <point x="826" y="799" type="qcurve" smooth="yes"/>
      <point x="826" y="767"/>
      <point x="843" y="732.5" type="qcurve" smooth="yes"/>
      <point x="856.81" y="704.474"/>
      <point x="880.518" y="678.098" type="qcurve" smooth="yes"/>
      <point x="887.718" y="671.149"/>
      <point x="895" y="664" type="qcurve"/>
      <point x="815" y="664" type="line"/>
      <point x="659.842" y="812.854"/>
      <point x="550" y="852" type="qcurve" smooth="yes"/>
      <point x="456" y="886"/>
      <point x="403" y="886" type="qcurve" smooth="yes"/>
      <point x="268" y="886"/>
      <point x="146" y="792"/>
      <point x="146" y="726" type="qcurve" smooth="yes"/>
      <point x="146" y="708"/>
      <point x="157" y="678"/>
      <point x="166" y="666" type="qcurve"/>
      <point x="280" y="666" type="line"/>
      <point x="280" y="606" type="line"/>
      <point x="166" y="606" type="line"/>
      <point x="166" y="0" type="line"/>
      <point x="100" y="0" type="line"/>
      <point x="100" y="606" type="line"/>
    </contour>
    <contour>
      <point x="902" y="748" type="line"/>
      <point x="902" y="821" type="line"/>
      <point x="976" y="821" type="line"/>
      <point x="976" y="748" type="line"/>
    </contour>
  </outline>
</glyph>
<glyph name="isign_ra_virama_anusvara.tha" format="1">
  <advance width="266"/>
  <outline>
    <contour>
      <point x="-13" y="606" type="line"/>
      <point x="-13" y="666" type="line"/>
      <point x="97" y="666" type="line"/>
      <point x="95" y="756" type="line"/>
      <point x="95" y="845.007"/>
      <point x="168.5" y="895.5" type="qcurve" smooth="yes"/>
      <point x="240.829" y="946"/>
      <point x="360" y="945" type="qcurve"/>
      <point x="545" y="945"/>
      <point x="660" y="867" type="qcurve" smooth="yes"/>
      <point x="678.169" y="854.677"/>
      <point x="695.239" y="841.206" type="qcurve"/>
      <point x="706.033" y="875.568"/>
      <point x="735.5" y="902.5" type="qcurve" smooth="yes"/>
      <point x="782" y="945"/>
      <point x="849" y="945" type="qcurve" smooth="yes"/>
      <point x="863.789" y="945"/>
      <point x="885" y="942" type="qcurve" smooth="yes"/>
      <point x="898.5" y="940"/>
      <point x="902" y="936" type="qcurve"/>
      <point x="902" y="879" type="line"/>
      <point x="898.123" y="883.621"/>
      <point x="873" y="883.5" type="qcurve" smooth="yes"/>
      <point x="805.862" y="883.162"/>
      <point x="783" y="857" type="qcurve" smooth="yes"/>
      <point x="752.919" y="822.586"/>
      <point x="756.5" y="791.498" type="qcurve"/>
      <point x="765" y="778"/>
      <point x="839" y="666" type="qcurve"/>
      <point x="767" y="665" type="line"/>
      <point x="756.229" y="683.466"/>
      <point x="744.069" y="700.693" type="qcurve"/>
      <point x="704.667" y="749.37" type="line"/>
      <point x="666.162" y="790.977"/>
      <point x="617.5" y="823.5" type="qcurve" smooth="yes"/>
      <point x="524" y="886"/>
      <point x="360" y="886" type="qcurve" smooth="yes"/>
      <point x="257.563" y="886"/>
      <point x="212" y="852.5" type="qcurve" smooth="yes"/>
      <point x="163.02" y="816.488"/>
      <point x="161" y="756" type="qcurve"/>
      <point x="164" y="666" type="line"/>
      <point x="280" y="666" type="line"/>
      <point x="280" y="606" type="line"/>
      <point x="166" y="606" type="line"/>
      <point x="166" y="0" type="line"/>
      <point x="100" y="0" type="line"/>
      <point x="100" y="606" type="line"/>
    </contour>
    <contour>
      <point x="870" y="749" type="line"/>
      <point x="870" y="822" type="line"/>
      <point x="944" y="822" type="line"/>
      <point x="944" y="749" type="line"/>
    </contour>
  </outline>
</glyph>
<glyph name="isigndeva_anusvara.tha" format="1">
  <advance width="266"/>
  <outline>
    <contour>
      <point x="735" y="859" type="line"/>
      <point x="735" y="952" type="line"/>
      <point x="835" y="952" type="line"/>
      <point x="835" y="859" type="line"/>
    </contour>
    <contour>
      <point x="-13" y="606" type="line"/>
      <point x="-13" y="666" type="line"/>
      <point x="98" y="666" type="line"/>
      <point x="96.1934" y="666.612"/>
      <point x="95.4551" y="702" type="qcurve" smooth="yes"/>
      <point x="95" y="726"/>
      <point x="95" y="756" type="qcurve" smooth="yes"/>
      <point x="95" y="845.007"/>
      <point x="168.5" y="895.5" type="qcurve" smooth="yes"/>
      <point x="240.829" y="946"/>
      <point x="360" y="945" type="qcurve" smooth="yes"/>
      <point x="546" y="945"/>
      <point x="776" y="789"/>
      <point x="847" y="665" type="qcurve"/>
      <point x="768" y="665" type="line"/>
      <point x="712" y="761"/>
      <point x="525" y="886"/>
      <point x="360" y="886" type="qcurve" smooth="yes"/>
      <point x="257.563" y="886"/>
      <point x="212" y="852.5" type="qcurve" smooth="yes"/>
      <point x="163.02" y="816.488"/>
      <point x="161" y="756" type="qcurve" smooth="yes"/>
      <point x="159.765" y="714.887"/>
      <point x="161.455" y="702" type="qcurve" smooth="yes"/>
      <point x="165.515" y="676.999"/>
      <point x="164" y="666" type="qcurve"/>
      <point x="280" y="666" type="line"/>
      <point x="280" y="606" type="line"/>
      <point x="166" y="606" type="line"/>
      <point x="166" y="0" type="line"/>
      <point x="100" y="0" type="line"/>
      <point x="100" y="606" type="line"/>
    </contour>
  </outline>
</glyph>
<glyph name="sadeva_viramadeva" format="1">
  <advance width="523"/>
  <outline>
    <contour>
      <point x="-13" y="606" type="line"/>
      <point x="-13" y="666" type="line"/>
      <point x="537" y="666" type="line"/>
      <point x="537" y="606" type="line"/>
      <point x="317" y="606" type="line"/>
      <point x="317" y="434" type="line" smooth="yes"/>
      <point x="317" y="408"/>
      <point x="313" y="386" type="qcurve"/>
      <point x="550" y="386" type="line"/>
      <point x="550" y="326" type="line"/>
      <point x="285" y="326" type="line"/>
      <point x="265.037" y="302.003"/>
      <point x="241" y="296.5" type="qcurve" smooth="yes"/>
      <point x="193.738" y="285.555"/>
      <point x="184" y="300" type="qcurve" smooth="yes"/>
      <point x="364" y="33" type="line"/>
      <point x="317" y="0" type="line"/>
      <point x="17" y="433" type="line"/>
      <point x="71" y="473" type="line"/>
      <point x="101" y="421"/>
      <point x="161" y="360"/>
      <point x="212" y="360"/>
      <point x="250" y="398"/>
      <point x="250" y="426" type="qcurve" smooth="yes"/>
      <point x="250" y="606" type="line"/>
    </contour>
  </outline>
</glyph>
<glyph name="sha_virama_rvocalicdeva" format="1">
  <advance width="625"/>
  <outline>
    <contour>
      <point x="233" y="466" type="qcurve"/>
      <point x="264" y="483"/>
      <point x="300" y="534"/>
      <point x="300" y="559" type="qcurve" smooth="yes"/>
      <point x="300" y="590"/>
      <point x="261" y="633"/>
      <point x="233" y="633" type="qcurve" smooth="yes"/>
      <point x="202" y="633"/>
      <point x="160" y="594"/>
      <point x="160" y="566" type="qcurve" smooth="yes"/>
      <point x="160" y="533"/>
      <point x="200" y="478"/>
    </contour>
    <contour>
      <point x="13" y="313" type="line"/>
      <point x="118" y="384" type="line" smooth="yes"/>
      <point x="172" y="421"/>
      <point x="186" y="433" type="qcurve"/>
      <point x="146" y="453"/>
      <point x="100" y="525"/>
      <point x="100" y="566" type="qcurve" smooth="yes"/>
      <point x="100" y="613"/>
      <point x="178" y="679"/>
      <point x="288" y="679"/>
      <point x="366" y="609"/>
      <point x="366" y="559" type="qcurve" smooth="yes"/>
      <point x="366" y="531"/>
      <point x="325" y="465"/>
      <point x="286" y="433" type="qcurve"/>
      <point x="459" y="326" type="line"/>
      <point x="459" y="606" type="line"/>
      <point x="413" y="606" type="line"/>
      <point x="413" y="666" type="line"/>
      <point x="639" y="666" type="line"/>
      <point x="639" y="606" type="line"/>
      <point x="526" y="606" type="line"/>
      <point x="526" y="27" type="line"/>
      <point x="526" y="0" type="line"/>
      <point x="526" y="-33" type="line"/>
      <point x="466" y="-33" type="line" smooth="yes"/>
      <point x="419" y="-33"/>
      <point x="353" y="-84"/>
      <point x="353" y="-156"/>
      <point x="411" y="-206"/>
      <point x="453" y="-206" type="qcurve" smooth="yes"/>
      <point x="491" y="-206"/>
      <point x="557" y="-182"/>
      <point x="579" y="-160" type="qcurve"/>
      <point x="613" y="-220" type="line"/>
      <point x="582" y="-245"/>
      <point x="499" y="-273"/>
      <point x="453" y="-273" type="qcurve" smooth="yes"/>
      <point x="384" y="-273"/>
      <point x="286" y="-184"/>
      <point x="286" y="-120" type="qcurve" smooth="yes"/>
      <point x="286" y="-59"/>
      <point x="338" y="-16" type="qcurve" smooth="yes"/>
      <point x="389" y="25"/>
      <point x="459" y="27" type="qcurve"/>
      <point x="459" y="260" type="line"/>
      <point x="240" y="393" type="line"/>
      <point x="226" y="381"/>
      <point x="100" y="304"/>
      <point x="47" y="266" type="qcurve"/>
    </contour>
  </outline>
</glyph>
